<?xml version="1.0" encoding="UTF-8"?>
<svg version="1.1" xmlns="http://www.w3.org/2000/svg" viewBox="0 0 196 196">
<path d="M0 0 C1.55372433 1.34031496 3.09552869 2.69457421 4.625 4.0625 C5.45386719 4.74957031 6.28273437 5.43664062 7.13671875 6.14453125 C25.42258854 21.68612043 36.54980032 44.43390409 39.3125 68.125 C41.38280459 94.95269694 34.59490833 120.00960621 17.625 141.0625 C16.95984375 141.89265625 16.2946875 142.7228125 15.609375 143.578125 C-0.48954121 162.53907075 -23.36088313 173.85843847 -47.9453125 176.78515625 C-71.93322964 178.72495365 -97.49538979 173.22783488 -116.75 158.125 C-118.30372433 156.78468504 -119.84552869 155.43042579 -121.375 154.0625 C-122.20386719 153.37542969 -123.03273437 152.68835938 -123.88671875 151.98046875 C-142.17258854 136.43887957 -153.29980032 113.69109591 -156.0625 90 C-158.13280459 63.17230306 -151.34490833 38.11539379 -134.375 17.0625 C-133.70984375 16.23234375 -133.0446875 15.4021875 -132.359375 14.546875 C-116.26045879 -4.41407075 -93.38911687 -15.73343847 -68.8046875 -18.66015625 C-44.81677036 -20.59995365 -19.25461021 -15.10283488 0 0 Z " fill="#307FEC" transform="translate(156.375,18.9375)"/>
<path d="M0 0 C9.14866886 0.037533 17.22012512 2.42754171 25.875 5.3125 C25.24816224 9.20323238 24.06490291 12.41180682 22.40625 15.98046875 C21.91769531 17.03814453 21.42914063 18.09582031 20.92578125 19.18554688 C20.41402344 20.27931641 19.90226562 21.37308594 19.375 22.5 C18.86324219 23.60537109 18.35148437 24.71074219 17.82421875 25.84960938 C14.22879464 33.60491071 14.22879464 33.60491071 12.875 36.3125 C19.475 36.3125 26.075 36.3125 32.875 36.3125 C30.13188243 44.5418527 27.05516557 50.8197504 22.875 58.3125 C16.275 58.3125 9.675 58.3125 2.875 58.3125 C2.215 60.2925 1.555 62.2725 0.875 64.3125 C-0.30574675 66.89295828 -1.51012196 69.4485972 -2.75 72 C-7.20837762 81.30592927 -11.1713474 90.78137319 -15.125 100.3125 C-26.675 100.3125 -38.225 100.3125 -50.125 100.3125 C-48.99988191 93.56179145 -48.99988191 93.56179145 -47.19921875 89.8515625 C-46.81443359 89.04976563 -46.42964844 88.24796875 -46.03320312 87.421875 C-45.63037109 86.60203125 -45.22753906 85.7821875 -44.8125 84.9375 C-44.42126953 84.12539062 -44.03003906 83.31328125 -43.62695312 82.4765625 C-42.13890661 79.39682444 -40.64408179 76.32251329 -39.08056641 73.28027344 C-37.35389762 69.91812423 -35.79432282 66.56321047 -34.42578125 63.0390625 C-31.06119644 54.44632958 -27.11915997 46.09069224 -23.3125 37.6875 C-21.74222915 34.21671445 -20.17343679 30.74526392 -18.60546875 27.2734375 C-18.22574921 26.43367371 -17.84602966 25.59390991 -17.45480347 24.72869873 C-14.65685526 18.52810126 -11.91611188 12.30402633 -9.23417664 6.05233765 C-6.76291797 0.33468549 -6.2733019 0.13332521 0 0 Z " fill="#FCFDFE" transform="translate(86.125,50.6875)"/>
<path d="M0 0 C5.49110072 -0.07550699 10.98188377 -0.12922511 16.47338867 -0.16479492 C18.33216632 -0.17966003 20.19091038 -0.19995805 22.04956055 -0.22631836 C56.20891765 -0.69780069 56.20891765 -0.69780069 69 7 C69.88558594 7.51433594 69.88558594 7.51433594 70.7890625 8.0390625 C73.62173603 9.79773659 75.12383176 11.18574763 77 14 C77.265625 16.92578125 77.265625 16.92578125 77.25 20.3125 C77.25773437 21.97732422 77.25773437 21.97732422 77.265625 23.67578125 C77 27 77 27 75 33 C63.45 33 51.9 33 40 33 C40.33 31.02 40.66 29.04 41 27 C41.92939473 18.83651171 41.92939473 18.83651171 39 11.5 C30.21072208 4.17560173 20.01523416 2.92347445 8.9375 1.875 C8.07189453 1.78863281 7.20628906 1.70226563 6.31445312 1.61328125 C4.21011156 1.40400971 2.10511876 1.20130332 0 1 C0 0.67 0 0.34 0 0 Z " fill="#F8FAFE" transform="translate(83,45)"/>
</svg>
